<?xml version="1.0" encoding="UTF-8"?>
<svg width="48" height="48" viewBox="0 0 48 48" fill="none" xmlns="http://www.w3.org/2000/svg">
  <!-- Chart Background -->
  <rect x="4" y="4" width="40" height="40" rx="4" fill="#ECF0F1" stroke="#BDC3C7" stroke-width="2"/>
  
  <!-- Grid Lines -->
  <line x1="4" y1="14" x2="44" y2="14" stroke="#D5DBDB" stroke-width="1"/>
  <line x1="4" y1="24" x2="44" y2="24" stroke="#D5DBDB" stroke-width="1"/>
  <line x1="4" y1="34" x2="44" y2="34" stroke="#D5DBDB" stroke-width="1"/>
  
  <line x1="14" y1="4" x2="14" y2="44" stroke="#D5DBDB" stroke-width="1"/>
  <line x1="24" y1="4" x2="24" y2="44" stroke="#D5DBDB" stroke-width="1"/>
  <line x1="34" y1="4" x2="34" y2="44" stroke="#D5DBDB" stroke-width="1"/>
  
  <!-- Chart Line -->
  <path d="M8 36 L14 28 L20 32 L26 20 L32 24 L38 16 L44 22" 
        stroke="#3498DB" stroke-width="3" fill="none" stroke-linecap="round" stroke-linejoin="round"/>
  
  <!-- Data Points -->
  <circle cx="8" cy="36" r="2" fill="#3498DB"/>
  <circle cx="14" cy="28" r="2" fill="#3498DB"/>
  <circle cx="20" cy="32" r="2" fill="#3498DB"/>
  <circle cx="26" cy="20" r="2" fill="#3498DB"/>
  <circle cx="32" cy="24" r="2" fill="#3498DB"/>
  <circle cx="38" cy="16" r="2" fill="#3498DB"/>
</svg>
