<?xml version="1.0" encoding="UTF-8"?>
<svg width="48" height="48" viewBox="0 0 48 48" fill="none" xmlns="http://www.w3.org/2000/svg">
  <!-- House Roof -->
  <path d="M6 24 L24 6 L42 24 L38 24 L38 40 C38 42 36 44 34 44 L14 44 C12 44 10 42 10 40 L10 24 L6 24 Z" 
        fill="#3498DB" stroke="#2980B9" stroke-width="2"/>
  
  <!-- House Body -->
  <rect x="10" y="24" width="28" height="20" fill="#ECF0F1" stroke="#BDC3C7" stroke-width="2"/>
  
  <!-- Door -->
  <rect x="20" y="32" width="8" height="12" rx="1" fill="#8B4513" stroke="#654321" stroke-width="1"/>
  <circle cx="26" cy="38" r="1" fill="#FFD700"/>
  
  <!-- Windows -->
  <rect x="14" y="28" width="6" height="6" rx="1" fill="#87CEEB" stroke="#4682B4" stroke-width="1"/>
  <rect x="28" y="28" width="6" height="6" rx="1" fill="#87CEEB" stroke="#4682B4" stroke-width="1"/>
  
  <!-- Window Crosses -->
  <line x1="17" y1="28" x2="17" y2="34" stroke="#4682B4" stroke-width="1"/>
  <line x1="14" y1="31" x2="20" y2="31" stroke="#4682B4" stroke-width="1"/>
  <line x1="31" y1="28" x2="31" y2="34" stroke="#4682B4" stroke-width="1"/>
  <line x1="28" y1="31" x2="34" y2="31" stroke="#4682B4" stroke-width="1"/>
</svg>
