<?xml version="1.0" encoding="UTF-8"?>
<svg width="48" height="48" viewBox="0 0 48 48" fill="none" xmlns="http://www.w3.org/2000/svg">
  <!-- Phone Frame -->
  <rect x="8" y="4" width="32" height="40" rx="4" fill="#2C3E50" stroke="#34495E" stroke-width="2"/>
  
  <!-- Screen -->
  <rect x="12" y="8" width="24" height="32" rx="2" fill="#ECF0F1"/>
  
  <!-- Barcode -->
  <rect x="16" y="16" width="2" height="16" fill="#2C3E50"/>
  <rect x="19" y="16" width="1" height="16" fill="#2C3E50"/>
  <rect x="21" y="16" width="3" height="16" fill="#2C3E50"/>
  <rect x="25" y="16" width="1" height="16" fill="#2C3E50"/>
  <rect x="27" y="16" width="2" height="16" fill="#2C3E50"/>
  <rect x="30" y="16" width="1" height="16" fill="#2C3E50"/>
  <rect x="32" y="16" width="2" height="16" fill="#2C3E50"/>
  
  <!-- Scan Line -->
  <rect x="14" y="24" width="20" height="2" fill="#E74C3C" opacity="0.8"/>
  
  <!-- Corner Brackets -->
  <path d="M14 12 L14 16 M14 12 L18 12" stroke="#27AE60" stroke-width="2" stroke-linecap="round"/>
  <path d="M34 12 L34 16 M34 12 L30 12" stroke="#27AE60" stroke-width="2" stroke-linecap="round"/>
  <path d="M14 36 L14 32 M14 36 L18 36" stroke="#27AE60" stroke-width="2" stroke-linecap="round"/>
  <path d="M34 36 L34 32 M34 36 L30 36" stroke="#27AE60" stroke-width="2" stroke-linecap="round"/>
</svg>
