<?xml version="1.0" encoding="UTF-8"?>
<svg width="48" height="48" viewBox="0 0 48 48" fill="none" xmlns="http://www.w3.org/2000/svg">
  <!-- Gear Outer Ring -->
  <path d="M24 4 L27 8 L32 6 L35 11 L41 12 L42 18 L46 21 L44 27 L48 30 L45 35 L44 41 L38 42 L35 46 L29 44 L26 48 L20 45 L14 47 L11 42 L5 41 L4 35 L0 32 L2 26 L-2 23 L1 18 L0 12 L6 11 L9 7 L15 6 L18 2 L24 4 Z" 
        fill="#7F8C8D" stroke="#6C757D" stroke-width="1"/>
  
  <!-- Gear Inner Circle -->
  <circle cx="24" cy="24" r="8" fill="#34495E" stroke="#2C3E50" stroke-width="2"/>
  
  <!-- Center Hole -->
  <circle cx="24" cy="24" r="4" fill="white"/>
  
  <!-- Gear Teeth (simplified) -->
  <rect x="22" y="2" width="4" height="6" fill="#7F8C8D"/>
  <rect x="22" y="40" width="4" height="6" fill="#7F8C8D"/>
  <rect x="2" y="22" width="6" height="4" fill="#7F8C8D"/>
  <rect x="40" y="22" width="6" height="4" fill="#7F8C8D"/>
  
  <rect x="35" y="7" width="4" height="4" transform="rotate(45 37 9)" fill="#7F8C8D"/>
  <rect x="9" y="7" width="4" height="4" transform="rotate(-45 11 9)" fill="#7F8C8D"/>
  <rect x="35" y="37" width="4" height="4" transform="rotate(-45 37 39)" fill="#7F8C8D"/>
  <rect x="9" y="37" width="4" height="4" transform="rotate(45 11 39)" fill="#7F8C8D"/>
</svg>
